<svg width="279" height="173" viewBox="0 0 279 173" fill="none" xmlns="http://www.w3.org/2000/svg">
<path d="M233.705 79.1307C233.705 79.1307 255.005 70.3307 252.705 44.5307C252.705 44.5307 258.805 69.5307 235.405 82.3307C235.305 82.4307 231.805 81.0307 233.705 79.1307Z" fill="#D29F7E"/>
<mask id="mask0_2_275" style="mask-type:luminance" maskUnits="userSpaceOnUse" x="233" y="44" width="21" height="39">
<path d="M233.705 79.1307C233.705 79.1307 255.005 70.3307 252.705 44.5307C252.705 44.5307 258.805 69.5307 235.405 82.3307C235.305 82.4307 231.805 81.0307 233.705 79.1307Z" fill="white"/>
</mask>
<g mask="url(#mask0_2_275)">
<g opacity="0.88">
<path d="M238.405 78.7307C238.405 78.8307 238.405 78.8307 238.405 78.9307C238.505 78.9307 238.405 78.8307 238.405 78.7307Z" fill="#322015"/>
<path d="M242.005 77.0307L241.905 76.8307C241.905 76.9307 241.905 76.9307 242.005 77.0307Z" fill="#322015"/>
<path d="M234.805 79.7307C234.705 79.6307 234.805 79.6307 234.805 79.7307V79.7307Z" fill="#322015"/>
<path d="M243.105 76.0307V75.9307C243.005 75.8307 243.105 75.9307 243.105 76.0307Z" fill="#322015"/>
<path d="M236.005 79.5307C236.205 80.1307 235.905 79.6307 236.005 80.2307C236.005 80.0307 236.105 79.9307 236.205 80.3307C236.205 80.7307 236.005 80.3307 236.205 80.8307L236.305 80.6307C236.405 80.8307 236.505 81.3307 236.505 81.2307C236.405 80.4307 236.905 81.4307 237.005 81.2307V81.3307L237.305 81.6307V81.5307C237.505 81.8307 237.705 82.0307 237.805 81.9307C237.705 81.5307 238.205 81.6307 238.105 81.2307C238.105 81.3307 238.005 81.3307 237.905 81.3307L237.705 80.8307C237.805 80.8307 237.905 81.2307 237.905 80.9307C237.605 80.2307 237.705 81.0307 237.605 80.9307C237.605 80.7307 237.605 80.6307 237.605 80.5307C237.405 80.5307 237.205 80.4307 237.305 81.1307C237.205 81.0307 237.105 80.7307 237.105 80.6307C237.105 81.0307 236.905 80.2307 236.905 80.6307C236.705 80.0307 237.105 80.2307 237.005 79.8307C237.305 80.2307 237.405 79.7307 237.505 79.6307C237.705 80.0307 237.705 80.5307 237.905 80.7307C238.205 80.9307 238.005 80.4307 238.005 80.1307C238.205 80.2307 238.305 80.8307 238.505 80.8307V81.1307C238.905 81.7307 238.505 80.8307 238.705 80.9307C238.605 80.7307 238.505 80.6307 238.405 80.7307C238.305 80.5307 238.305 80.3307 238.405 80.3307C238.305 80.0307 238.205 79.6307 238.405 79.7307C238.505 80.1307 238.605 79.9307 238.705 80.1307V80.2307C238.705 80.0307 238.905 80.0307 238.905 80.0307V80.1307C238.905 79.9307 238.705 79.5307 238.905 79.5307C239.005 79.7307 239.105 80.2307 239.205 80.1307C239.305 80.4307 239.205 80.5307 239.105 80.4307C239.205 80.5307 239.505 80.9307 239.405 81.0307C239.605 81.3307 239.505 80.8307 239.605 80.9307C239.505 80.8307 239.505 80.7307 239.405 80.6307C239.605 81.1307 239.705 80.5307 239.505 80.2307V80.5307C239.305 80.1307 239.305 79.8307 239.205 79.6307C239.505 80.2307 239.405 79.2307 239.705 79.6307L239.505 79.3307C239.805 79.3307 239.705 78.6307 239.805 78.3307C239.805 78.5307 240.205 79.2307 239.905 79.0307C240.205 79.0307 240.305 79.6307 240.605 79.9307C240.905 80.0307 240.405 79.3307 240.305 79.0307L240.205 79.2307C239.905 78.4307 240.705 79.1307 240.705 78.5307C240.805 78.7307 240.705 78.6307 240.705 78.7307C241.005 79.0307 240.805 78.6307 240.705 78.4307C240.805 78.4307 241.105 78.5307 241.305 79.0307C241.505 79.0307 241.105 78.7307 241.105 78.6307L241.205 78.7307L241.005 78.1307C241.205 78.2307 241.505 78.3307 241.805 78.7307C242.005 78.5307 241.205 77.7307 241.305 77.4307C241.505 77.6307 241.505 77.7307 241.605 77.9307L241.705 77.8307C242.005 78.3307 241.705 78.2307 242.105 78.7307C241.805 78.0307 242.205 78.4307 242.105 77.9307C241.905 77.5307 242.305 77.6307 242.305 77.5307C242.405 77.8307 242.305 77.9307 242.305 78.0307C242.505 78.1307 242.705 77.7307 242.405 77.2307C242.505 77.2307 242.805 77.3307 242.905 77.6307C243.205 77.5307 242.405 76.9307 242.705 76.8307L243.005 77.2307C243.605 77.5307 243.005 76.4307 243.605 76.7307L243.205 76.3307C243.405 76.4307 243.605 76.5307 243.705 76.6307V76.8307C244.105 77.1307 243.505 76.4307 243.805 76.5307C243.705 76.4307 243.305 76.2307 243.205 76.0307C243.005 76.6307 242.105 76.3307 242.105 77.0307C242.205 77.0307 242.205 77.1307 242.305 77.2307C242.205 77.1307 242.205 77.3307 242.005 77.1307C242.005 77.3307 241.505 76.8307 241.405 76.8307C241.605 77.1307 241.105 76.8307 241.505 77.3307L241.205 77.0307C241.305 77.2307 241.505 77.5307 241.505 77.6307C241.405 77.6307 241.205 77.4307 241.205 77.2307C240.805 77.2307 240.505 77.5307 240.305 77.8307L240.205 77.5307C240.005 77.4307 240.205 78.1307 239.905 77.4307C239.905 77.7307 239.405 77.4307 239.805 78.1307C239.305 77.5307 239.305 78.0307 239.105 78.2307C239.505 78.8307 239.005 78.5307 239.105 78.8307C238.805 78.3307 239.005 78.2307 238.905 77.9307C239.105 78.8307 238.105 77.6307 238.605 78.9307L238.505 78.8307C238.505 78.8307 238.305 78.6307 238.205 78.6307C238.305 78.8307 238.405 78.9307 238.305 79.0307C238.205 79.0307 238.105 78.6307 238.005 78.5307C238.005 78.9307 237.805 79.1307 238.005 79.6307C237.905 79.5307 237.705 79.2307 237.705 79.1307C237.605 79.6307 237.405 79.1307 237.305 79.5307C237.405 79.5307 237.105 78.9307 237.305 79.1307C236.905 78.4307 237.005 79.4307 236.605 79.0307L236.705 79.5307C236.605 79.6307 236.505 79.2307 236.505 79.0307C236.205 78.8307 236.205 79.1307 236.005 79.1307C236.005 79.0307 236.005 78.9307 236.005 79.0307H235.805C235.805 79.1307 235.805 79.4307 235.905 79.7307C235.805 79.5307 235.805 79.3307 236.005 79.5307Z" fill="#322015"/>
<path d="M238.905 81.1307C238.805 81.0307 238.805 80.9307 238.805 80.9307C238.805 81.0307 238.805 81.1307 238.905 81.1307Z" fill="#322015"/>
<path d="M233.705 81.1307C233.805 81.9307 233.805 81.0307 234.005 81.2307C233.905 81.3307 234.005 81.8307 234.005 82.0307C234.005 81.0307 234.205 82.2307 234.405 81.9307C234.505 82.2307 234.305 82.3307 234.405 82.6307C234.505 82.3307 234.705 82.2307 234.705 81.6307C234.905 81.6307 235.105 81.7307 235.305 81.6307C235.205 81.8307 235.405 82.1307 235.305 82.6307C235.405 81.9307 235.605 81.1307 235.705 80.3307C235.905 80.9307 235.905 80.9307 236.005 81.5307C236.405 81.8307 235.905 80.9307 236.305 81.0307L236.205 80.9307C236.305 80.7307 236.105 80.1307 236.105 79.7307L235.805 79.9307C235.705 79.5307 235.905 79.5307 235.905 79.4307C235.905 78.9307 235.705 79.1307 235.605 78.7307C235.605 79.0307 235.505 79.0307 235.505 79.1307L235.405 78.9307C235.205 78.7307 235.305 79.3307 235.205 79.3307C235.205 79.2307 235.205 79.2307 235.205 79.2307C235.205 79.5307 235.205 79.8307 235.205 79.9307H235.305C235.305 80.4307 235.105 80.8307 235.405 81.4307L235.105 81.3307C235.005 80.7307 235.005 79.8307 235.105 79.7307V79.5307C234.905 79.2307 234.805 80.0307 235.005 80.5307C235.105 81.9307 234.505 80.6307 234.405 81.2307C234.305 80.8307 234.405 80.7307 234.505 80.4307C234.605 80.3307 234.605 80.3307 234.705 80.6307C235.005 80.3307 234.505 79.4307 234.805 79.5307C235.005 79.7307 234.705 80.1307 234.905 80.2307V79.1307C234.805 79.1307 234.705 79.3307 234.605 79.5307C234.405 79.9307 234.105 79.9307 233.905 79.9307C233.705 79.9307 233.605 79.7307 233.605 79.7307C232.705 79.9307 231.805 80.0307 230.905 79.9307C230.605 80.0307 230.505 79.9307 230.205 80.9307C230.205 81.1307 230.405 81.1307 230.305 81.4307C230.405 81.0307 230.605 80.8307 230.705 80.9307C230.705 81.3307 230.505 81.1307 230.505 81.2307C230.405 81.4307 230.405 81.5307 230.305 81.5307C230.405 82.1307 230.805 82.0307 231.005 81.3307C231.105 81.7307 230.805 81.9307 230.705 82.2307C231.205 82.6307 231.605 82.5307 232.205 82.6307C232.205 81.9307 232.305 82.2307 232.405 81.7307V81.9307C232.405 81.8307 232.505 81.3307 232.405 81.2307C232.705 81.7307 232.805 80.3307 232.905 80.0307V80.4307C233.105 80.3307 233.105 80.3307 233.205 80.1307C233.505 80.8307 233.005 80.2307 233.105 81.1307L233.205 81.0307C233.205 81.3307 233.105 81.9307 233.105 82.2307C233.405 81.6307 233.505 82.4307 233.805 82.0307C233.805 82.4307 233.505 82.7307 233.505 82.8307C233.605 82.8307 233.805 82.5307 233.805 82.9307V82.4307C234.005 82.3307 233.805 82.9307 233.905 83.2307C233.905 82.9307 233.405 81.4307 233.705 81.1307Z" fill="#322015"/>
<path d="M237.705 80.5307C237.605 80.5307 237.605 80.5307 237.605 80.6307C237.705 80.5307 237.705 80.5307 237.705 80.5307Z" fill="#322015"/>
<path d="M237.205 81.6307C237.205 81.7307 237.205 81.7307 237.205 81.8307C237.305 81.7307 237.305 81.7307 237.205 81.6307Z" fill="#322015"/>
<path d="M237.405 82.3307C237.305 82.1307 237.405 82.1307 237.305 81.8307C237.305 82.0307 237.105 82.0307 237.405 82.3307Z" fill="#322015"/>
<path d="M248.405 73.8307C248.305 73.7307 248.305 73.5307 248.105 73.5307V73.7307L248.405 73.8307Z" fill="#322015"/>
<path d="M247.705 73.8307H247.505L248.005 74.3307C248.005 74.1307 247.605 73.9307 247.705 73.8307Z" fill="#322015"/>
<path d="M247.205 73.9307L247.105 73.8307C247.105 73.8307 247.105 73.9307 247.205 73.9307Z" fill="#322015"/>
<path d="M247.405 74.1307L247.705 74.4307L247.605 74.0307L247.405 74.1307C247.305 74.0307 247.305 74.0307 247.205 73.9307L247.405 74.1307Z" fill="#322015"/>
<path d="M246.305 74.0307C246.505 74.1307 246.605 74.3307 246.805 74.4307C247.005 74.4307 246.505 73.9307 246.805 74.0307C247.005 74.4307 247.105 74.1307 247.305 74.2307C246.905 74.0307 246.605 73.8307 246.305 74.0307L246.605 74.1307C246.605 74.1307 246.505 74.0307 246.305 74.0307Z" fill="#322015"/>
<path d="M246.405 75.1307L246.105 74.7307C246.305 74.8307 246.405 74.7307 246.805 75.0307C246.805 74.9307 246.605 74.8307 246.605 74.6307C246.805 74.7307 247.005 74.8307 246.805 74.5307C246.405 74.5307 246.305 74.4307 246.105 74.5307C246.005 74.4307 246.105 74.4307 246.105 74.4307H245.805C246.105 74.8307 246.005 75.0307 246.405 75.1307Z" fill="#322015"/>
<path d="M246.005 75.0307C246.105 74.9307 245.805 74.5307 245.505 74.4307C245.505 74.6307 245.605 74.7307 245.605 74.8307C245.605 74.8307 245.705 74.7307 246.005 75.0307Z" fill="#322015"/>
<path d="M245.805 75.2307C245.605 75.1307 245.105 74.8307 245.405 75.2307C245.505 75.0307 246.005 75.5307 245.805 75.2307Z" fill="#322015"/>
<path d="M244.805 75.6307H245.205C245.705 76.0307 245.205 75.8307 245.405 76.1307C245.605 76.0307 245.505 75.9307 245.305 75.6307C245.405 75.6307 245.205 75.3307 245.105 75.1307C245.305 75.6307 244.205 74.6307 244.805 75.6307Z" fill="#322015"/>
<path d="M245.605 75.6307L245.505 75.4307V75.6307H245.605Z" fill="#322015"/>
<path d="M243.905 75.6307C243.305 75.2307 244.005 76.1307 243.605 76.0307C243.605 76.0307 243.505 75.9307 243.505 75.8307L243.405 75.9307L243.305 75.8307C243.605 76.1307 243.605 76.3307 243.805 76.6307C244.205 76.8307 243.505 76.2307 243.905 76.4307C244.005 76.6307 244.205 76.8307 244.305 76.9307C244.205 76.7307 244.105 76.5307 243.905 76.3307C243.905 76.2307 244.105 76.4307 244.205 76.5307C244.105 76.2307 243.705 75.8307 243.905 75.8307C244.205 76.0307 244.305 76.3307 244.305 76.0307C243.805 75.6307 244.505 75.9307 244.305 75.6307C244.505 75.6307 244.805 75.8307 245.005 76.0307C244.605 75.6307 244.405 75.2307 244.405 75.1307L244.505 75.6307L244.005 75.2307C244.205 75.5307 244.105 75.6307 243.905 75.6307Z" fill="#322015"/>
<path d="M245.205 76.2307L245.305 76.3307L245.405 76.4307L245.205 76.2307Z" fill="#322015"/>
<path d="M244.205 77.2307L243.905 77.0307L244.105 77.2307H244.205Z" fill="#322015"/>
<path d="M241.405 79.0307C241.605 79.1307 241.405 78.8307 241.205 78.5307C241.005 78.5307 241.405 78.8307 241.405 79.0307Z" fill="#322015"/>
<path d="M239.805 80.5307C240.005 80.7307 239.905 80.3307 240.105 80.2307C239.905 80.1307 239.805 80.3307 239.805 80.5307Z" fill="#322015"/>
<path d="M239.605 82.1307C239.605 82.0307 239.605 81.9307 239.505 81.9307L239.305 81.2307C239.005 81.0307 239.405 81.9307 239.605 82.1307Z" fill="#322015"/>
<path d="M238.605 82.7307L238.705 82.4307H238.605C238.505 82.1307 238.505 82.0307 238.505 81.7307C238.405 81.9307 238.405 82.2307 238.605 82.7307Z" fill="#322015"/>
<path d="M238.505 81.5307C238.605 81.6307 238.605 81.7307 238.505 81.5307V81.5307Z" fill="#322015"/>
<path d="M238.405 81.6307C238.505 81.6307 238.505 81.6307 238.405 81.6307C238.405 81.4307 238.505 81.5307 238.405 81.6307Z" fill="#322015"/>
<path d="M238.305 82.4307L238.005 82.6307L238.205 82.7307C238.105 82.2307 238.505 82.8307 238.305 82.4307Z" fill="#322015"/>
<path d="M236.705 82.5307L236.605 82.1307C236.405 82.0307 236.405 83.1307 236.105 82.4307C236.205 82.6307 236.105 82.9307 236.305 83.0307C236.305 82.5307 236.505 82.4307 236.705 82.5307Z" fill="#322015"/>
<path d="M235.905 82.0307C235.905 81.9307 235.805 81.8307 235.805 81.7307C235.705 81.7307 235.705 81.9307 235.805 82.1307C235.605 81.4307 235.905 82.4307 235.905 82.0307Z" fill="#322015"/>
<path d="M235.005 82.2307C235.105 82.2307 235.105 82.1307 235.005 82.0307C234.805 82.1307 235.005 82.5307 234.905 82.9307C235.205 83.1307 235.205 82.4307 235.005 82.2307Z" fill="#322015"/>
<path d="M233.405 79.1307C233.505 79.5307 233.605 79.4307 233.605 79.3307C233.605 79.3307 233.505 79.2307 233.405 79.1307Z" fill="#322015"/>
<path d="M233.705 82.3307L233.805 82.4307V81.8307L233.705 82.3307Z" fill="#322015"/>
</g>
</g>
<path d="M24.1054 167.131C21.7054 165.831 262.505 163.531 276.505 167.131C286.605 169.731 250.005 172.331 206.905 172.231C161.105 172.231 107.905 169.431 93.0054 170.931C64.0054 173.731 32.2054 171.531 24.1054 167.131Z" fill="#1B1C1E"/>
<path d="M218.805 133.531C210.505 140.431 204.305 160.631 202.305 167.531C201.905 168.931 200.605 169.931 199.105 169.931H193.705C192.105 169.931 190.805 168.731 190.605 167.131C188.305 146.331 195.205 122.831 195.205 122.831C195.205 122.831 201.705 116.631 210.405 118.531C219.205 120.631 233.405 121.331 218.805 133.531Z" fill="#D29F7E"/>
<path d="M193.905 169.731C193.905 169.731 193.405 165.431 194.105 161.931" stroke="#1B1C1E" stroke-width="1.2604" stroke-miterlimit="10" stroke-linecap="round" stroke-linejoin="round"/>
<path d="M198.405 169.331C198.405 169.331 198.605 165.531 199.005 163.831" stroke="#1B1C1E" stroke-width="1.2604" stroke-miterlimit="10" stroke-linecap="round" stroke-linejoin="round"/>
<mask id="mask1_2_275" style="mask-type:luminance" maskUnits="userSpaceOnUse" x="190" y="118" width="36" height="52">
<path d="M218.805 133.531C210.505 140.431 204.305 160.631 202.305 167.531C201.905 168.931 200.605 169.931 199.105 169.931H193.705C192.105 169.931 190.805 168.731 190.605 167.131C188.305 146.331 195.205 122.831 195.205 122.831C195.205 122.831 201.705 116.631 210.405 118.531C219.205 120.631 233.405 121.331 218.805 133.531Z" fill="white"/>
</mask>
<g mask="url(#mask1_2_275)">
<g opacity="0.84">
<path d="M204.305 123.831V123.531C204.405 123.631 204.405 123.731 204.305 123.831Z" fill="#322015"/>
<path d="M209.305 127.631C209.305 127.631 209.305 127.731 209.205 127.731C209.205 127.631 209.305 127.631 209.305 127.631Z" fill="#322015"/>
<path d="M215.705 128.331C215.805 128.331 215.805 128.431 215.705 128.331V128.431C215.705 128.531 215.705 128.431 215.705 128.331Z" fill="#322015"/>
<path d="M214.305 132.531L214.105 132.731C214.205 132.531 214.205 132.531 214.305 132.531Z" fill="#322015"/>
<path d="M216.005 127.431C216.005 127.531 215.905 127.531 215.905 127.631C215.905 127.531 215.905 127.531 216.005 127.431Z" fill="#322015"/>
<path d="M210.305 124.631C210.305 124.731 210.305 124.731 210.305 124.731C210.205 124.731 210.205 124.731 210.305 124.631Z" fill="#322015"/>
<path d="M202.205 123.431C202.105 123.431 202.105 123.331 202.105 123.331C202.205 123.231 202.205 123.231 202.205 123.431Z" fill="#322015"/>
<path d="M214.305 126.831C213.605 127.331 214.405 127.031 213.805 127.531C213.905 127.331 213.905 127.131 213.505 127.431C213.205 127.831 213.705 127.531 213.205 128.031L213.305 127.731C213.005 127.931 212.705 128.331 212.605 128.231C213.205 127.431 212.005 128.131 212.005 127.931V128.031C211.805 128.131 211.705 128.131 211.605 128.231L211.705 128.131C211.305 128.431 211.105 128.631 211.105 128.531C211.205 128.231 211.205 128.231 211.105 128.131C211.005 128.031 210.905 128.031 211.005 127.831C211.005 128.031 211.105 128.031 211.205 127.931L211.405 127.331C211.205 127.331 211.205 127.931 211.205 127.431C211.405 126.831 211.505 127.131 211.505 127.331C211.505 127.431 211.505 127.431 211.605 127.431C211.605 127.331 211.705 127.131 211.605 127.031V126.931H211.705C211.905 126.931 212.305 126.931 211.905 127.731C212.105 127.631 212.305 127.331 212.305 127.231C212.105 127.731 212.705 126.931 212.605 127.431C213.105 126.831 212.505 126.831 212.605 126.331C212.305 126.531 212.205 126.431 212.105 126.331C211.905 126.231 211.905 125.931 211.705 125.831C211.505 126.431 211.505 126.931 211.305 127.231C210.905 127.531 211.205 126.831 211.105 126.431C210.905 126.531 210.705 127.331 210.505 127.331V127.731C210.105 128.431 210.505 127.331 210.305 127.431C210.405 127.231 210.505 127.031 210.605 127.131C210.705 126.831 210.705 126.731 210.605 126.631C210.705 126.231 210.805 125.831 210.605 125.931C210.605 126.431 210.305 126.231 210.205 126.431V126.531C210.105 126.331 210.005 126.331 209.905 126.231V126.331C209.905 126.131 210.005 125.531 209.805 125.631C209.705 125.831 209.705 126.531 209.605 126.431C209.505 126.831 209.705 126.931 209.805 126.831C209.605 126.931 209.405 127.531 209.505 127.531C209.305 127.931 209.405 127.331 209.205 127.431C209.305 127.331 209.305 127.131 209.305 127.031C209.105 127.631 209.005 126.931 209.105 126.531L209.205 126.931C209.405 126.431 209.305 126.031 209.405 125.831C209.105 126.631 209.105 125.331 208.805 125.931L209.005 125.531C208.605 125.631 208.505 124.731 208.205 124.431C208.305 124.731 208.005 125.631 208.305 125.331C207.905 125.431 208.005 126.131 207.705 126.531C207.405 126.731 207.805 125.731 207.805 125.431L207.905 125.631C207.905 124.531 207.205 125.631 207.005 124.931C206.905 125.231 207.005 125.131 207.105 125.231C206.805 125.731 207.005 125.131 206.905 124.831C206.705 124.831 206.405 125.031 206.405 125.731C206.205 125.831 206.505 125.331 206.505 125.131L206.405 125.231V124.431C206.205 124.631 205.905 124.931 205.705 125.531C205.305 125.331 205.905 124.031 205.705 123.731C205.505 124.031 205.605 124.231 205.605 124.431L205.405 124.331C205.305 125.031 205.605 124.731 205.405 125.531C205.405 124.631 205.205 125.231 205.005 124.631V124.531C205.005 123.931 204.605 124.231 204.505 124.131C204.505 124.531 204.705 124.531 204.805 124.731C204.605 124.931 204.205 124.631 204.105 123.831C204.005 123.931 203.705 124.231 203.805 124.531C203.405 124.631 203.805 123.431 203.505 123.631L203.405 124.231C202.905 124.931 202.805 123.431 202.405 124.031L202.505 123.331C202.405 123.631 202.205 123.731 202.105 124.031L202.205 124.331C202.005 124.931 202.105 123.731 201.905 124.131C201.905 123.931 202.205 123.431 202.205 123.231C202.805 123.731 203.705 122.931 204.305 123.731C204.305 123.831 204.205 123.931 204.205 124.031C204.305 123.831 204.405 124.131 204.505 123.731V123.631C204.705 123.831 205.005 123.031 205.105 123.031C205.105 123.531 205.505 122.931 205.305 123.731L205.505 123.231C205.505 123.531 205.405 123.931 205.405 124.131C205.505 124.131 205.605 123.731 205.605 123.531C206.205 123.331 206.705 123.531 207.205 123.931V123.531C207.405 123.331 207.505 124.331 207.605 123.331C207.805 123.731 208.405 123.231 208.105 124.231C208.505 123.331 208.805 124.031 209.105 124.231C208.805 125.031 209.305 124.531 209.305 124.931C209.505 124.331 209.205 124.231 209.305 123.731C209.405 124.831 210.505 123.331 210.105 125.031C210.205 124.931 210.205 124.931 210.205 124.831C210.305 124.831 210.505 124.631 210.505 124.531C210.405 124.831 210.305 124.931 210.405 125.031C210.505 125.031 210.605 124.531 210.705 124.331C210.805 124.731 211.205 125.031 211.005 125.731C211.105 125.531 211.305 125.231 211.305 125.131C211.505 125.831 211.705 125.131 212.005 125.631C211.805 125.531 212.205 124.931 211.905 125.131C212.105 124.731 212.305 124.831 212.505 124.931C212.705 125.131 212.905 125.531 213.305 125.431C213.205 125.631 213.205 125.831 213.105 126.031C213.305 126.331 213.705 125.831 213.605 125.531C214.005 125.531 214.105 125.631 214.105 125.831C214.205 125.931 214.205 126.131 214.305 126.231C214.405 126.231 214.405 126.131 214.405 126.031C214.505 126.131 214.605 126.231 214.705 126.331C214.605 126.431 214.505 126.831 214.205 127.031C214.505 127.131 214.605 126.831 214.305 126.831Z" fill="#322015"/>
<path d="M210.005 127.831C210.105 127.731 210.105 127.631 210.205 127.631C210.205 127.731 210.105 127.731 210.005 127.831Z" fill="#322015"/>
<path d="M215.605 130.831C214.805 131.331 215.605 130.531 215.305 130.531C215.305 130.731 214.805 131.031 214.605 131.131C215.505 130.231 214.305 131.131 214.305 130.631C214.005 130.831 214.005 131.031 213.705 131.331C213.805 131.031 213.805 130.631 214.305 130.231C214.105 129.931 213.805 129.931 213.805 129.731C213.705 130.031 213.305 130.231 212.905 130.631C213.405 129.931 213.905 128.931 214.405 128.031C213.805 128.531 213.705 128.531 213.205 129.031C212.605 129.031 213.705 128.531 213.305 128.331H213.505C213.605 128.031 214.105 127.531 214.405 127.231C214.505 127.331 214.605 127.531 214.605 127.631C215.005 127.331 214.805 127.131 214.805 126.931C215.205 126.431 215.305 126.831 215.605 126.431C215.305 126.731 215.605 126.831 215.505 127.031L215.705 126.831C216.105 126.831 215.605 127.331 215.705 127.531C215.805 127.531 215.805 127.431 215.905 127.431C215.705 127.631 215.405 127.931 215.405 128.131V128.031C215.005 128.531 214.905 129.131 214.205 129.331L214.605 129.531C215.205 129.031 216.005 128.331 215.905 128.031L216.105 127.831C216.605 127.731 216.005 128.631 215.405 128.931C214.105 130.131 215.805 129.531 215.405 130.231C215.805 129.931 215.905 129.731 216.105 129.431C216.105 129.331 216.105 129.231 215.705 129.531C215.705 129.031 217.005 128.731 216.505 128.431C216.205 128.431 216.105 129.131 215.805 128.831L216.705 127.831C216.805 128.031 216.805 128.331 216.705 128.531C216.605 129.831 217.605 129.931 217.605 129.931C218.305 131.231 218.905 132.431 219.505 133.731C219.605 134.231 219.705 134.331 218.605 135.131C218.305 135.131 218.305 134.931 217.905 135.231C218.305 134.931 218.505 134.631 218.305 134.531C217.905 134.731 218.205 134.831 218.105 134.831H218.005C217.805 134.931 217.705 135.131 217.705 135.131C217.005 135.231 216.905 134.831 217.505 134.231C217.005 134.331 216.905 134.731 216.705 135.031C216.005 134.631 215.805 134.131 215.405 133.631C216.105 133.131 215.805 133.231 216.205 132.931L215.905 133.031C216.005 132.931 216.505 132.531 216.705 132.631C215.905 132.631 217.405 131.631 217.505 131.131L217.105 131.431C217.005 131.231 217.005 131.131 217.105 130.831C216.205 130.931 217.205 131.231 216.205 131.731L216.305 131.531C216.005 131.831 215.405 132.231 215.205 132.531C215.605 131.831 214.705 132.231 214.905 131.631C214.505 131.931 214.405 132.431 214.405 132.531C214.305 132.431 214.405 132.031 214.105 132.331L214.605 131.931C214.505 131.731 214.105 132.231 213.805 132.431C213.705 132.131 215.505 131.431 215.605 130.831Z" fill="#322015"/>
<path d="M211.405 127.031C211.505 127.031 211.505 127.031 211.605 127.131C211.505 127.131 211.505 127.031 211.405 127.031Z" fill="#322015"/>
<path d="M211.705 128.431C211.605 128.531 211.605 128.531 211.605 128.631C211.505 128.531 211.605 128.531 211.705 128.431Z" fill="#322015"/>
<path d="M211.105 129.131C211.305 128.931 211.305 128.931 211.505 128.631C211.405 128.731 211.505 128.931 211.105 129.131Z" fill="#322015"/>
<path d="M195.005 125.631C195.005 125.431 194.905 125.231 194.905 125.131L195.105 125.331L195.005 125.631Z" fill="#322015"/>
<path d="M195.505 125.031L195.705 124.831L195.805 125.631C195.505 125.631 195.705 125.031 195.505 125.031Z" fill="#322015"/>
<path d="M196.105 124.931V125.531L195.905 125.031L196.105 124.931C196.005 124.731 196.105 124.731 196.105 124.631V124.931Z" fill="#322015"/>
<path d="M196.905 123.931C196.805 124.131 196.905 124.531 196.905 124.731C196.705 124.931 196.705 124.031 196.505 124.331C196.705 124.831 196.405 124.631 196.205 125.031C196.305 124.431 196.405 124.131 196.705 123.931V124.331C196.905 124.331 196.805 124.031 196.905 123.931Z" fill="#322015"/>
<path d="M197.905 124.931L197.805 124.331C197.705 124.631 197.505 124.531 197.405 125.131C197.305 125.031 197.305 124.831 197.305 124.631C197.205 124.931 197.105 125.131 197.105 124.731C197.505 124.331 197.405 124.231 197.805 124.131C197.805 124.031 197.805 124.031 197.705 124.031L198.005 123.731C197.905 124.431 198.205 124.531 197.905 124.931Z" fill="#322015"/>
<path d="M198.305 124.531C198.105 124.431 198.105 123.931 198.205 123.631L198.505 124.131C198.405 124.031 198.305 124.031 198.305 124.531Z" fill="#322015"/>
<path d="M198.605 124.531C198.705 124.231 198.905 123.631 199.005 124.231C198.705 124.131 198.705 125.031 198.605 124.531Z" fill="#322015"/>
<path d="M199.905 124.231L199.505 124.531C199.305 125.231 199.605 124.831 199.705 125.131C199.405 125.231 199.505 125.031 199.305 124.531C199.205 124.531 199.105 124.131 199.005 123.931C199.505 124.631 199.705 122.831 199.905 124.231Z" fill="#322015"/>
<path d="M199.105 124.831V124.531L199.305 124.831H199.105Z" fill="#322015"/>
<path d="M200.905 123.531C201.205 122.731 201.205 124.131 201.505 123.731C201.505 123.631 201.505 123.631 201.505 123.531L201.705 123.631V123.431C201.605 123.931 201.805 124.231 201.805 124.631C201.505 125.131 201.805 123.931 201.505 124.531C201.505 124.731 201.505 125.131 201.505 125.331C201.405 125.031 201.405 124.731 201.405 124.431C201.305 124.331 201.305 124.631 201.205 124.831C201.105 124.531 201.205 123.731 200.905 123.931C200.705 124.331 200.905 124.631 200.705 124.431C200.905 123.631 200.405 124.531 200.405 124.031C200.205 124.131 200.005 124.631 200.005 124.931C200.105 124.331 200.005 123.731 199.905 123.531L200.205 124.131L200.405 123.431C200.605 123.631 200.705 123.631 200.905 123.531Z" fill="#322015"/>
<path d="M200.005 125.131L200.105 125.231L200.005 125.431V125.131Z" fill="#322015"/>
<path d="M201.905 125.431L202.105 125.031V125.331L201.905 125.431Z" fill="#322015"/>
<path d="M206.305 125.831C206.105 126.031 206.205 125.531 206.305 125.131C206.505 125.131 206.205 125.631 206.305 125.831Z" fill="#322015"/>
<path d="M208.705 127.131C208.505 127.431 208.505 126.931 208.305 126.831C208.505 126.731 208.705 126.931 208.705 127.131Z" fill="#322015"/>
<path d="M209.305 129.231C209.305 129.031 209.305 128.931 209.405 128.931L209.605 128.031C209.805 127.731 209.405 128.831 209.305 129.231Z" fill="#322015"/>
<path d="M210.405 129.731L210.305 129.331H210.405C210.505 128.931 210.505 128.831 210.505 128.431C210.605 128.731 210.605 129.131 210.405 129.731Z" fill="#322015"/>
<path d="M210.405 128.231C210.505 128.331 210.505 128.331 210.405 128.231C210.405 128.431 210.405 128.531 210.405 128.231Z" fill="#322015"/>
<path d="M210.605 128.431V128.531C210.505 128.431 210.505 128.431 210.605 128.431C210.605 128.231 210.505 128.231 210.605 128.431Z" fill="#322015"/>
<path d="M210.705 129.331C210.705 129.431 210.705 129.431 210.705 129.431L210.605 129.531C210.705 129.231 210.705 129.331 210.605 129.431C210.605 129.531 210.505 129.631 210.705 129.331Z" fill="#322015"/>
<path d="M211.605 129.531L212.005 129.231C212.205 129.331 211.505 130.331 212.305 129.831C212.005 129.931 211.905 130.331 211.605 130.231C212.005 129.831 211.805 129.631 211.605 129.531Z" fill="#322015"/>
<path d="M212.805 129.631C212.905 129.531 213.005 129.431 213.205 129.431C213.305 129.431 213.205 129.731 213.005 129.831C213.405 129.231 212.505 130.031 212.805 129.631Z" fill="#322015"/>
<path d="M213.405 130.531C213.405 130.431 213.405 130.331 213.505 130.331C213.605 130.531 213.105 130.831 212.805 131.131C212.505 131.231 213.105 130.631 213.405 130.531Z" fill="#322015"/>
<path d="M217.705 129.431C217.305 129.731 217.205 129.531 217.405 129.331C217.305 129.531 217.505 129.531 217.705 129.431Z" fill="#322015"/>
<path d="M214.505 131.731H214.305L214.905 131.331L214.505 131.731Z" fill="#322015"/>
<path d="M214.805 133.031L214.505 133.331V133.131L214.805 133.031Z" fill="#322015"/>
<path d="M215.105 133.131L215.205 133.331H215.005C214.805 133.331 215.105 133.131 215.105 133.131Z" fill="#322015"/>
<path d="M215.305 133.731H215.205L215.405 133.431L215.305 133.731Z" fill="#322015"/>
<path d="M219.605 135.031C220.005 134.731 219.805 135.131 220.005 135.131C219.905 135.131 219.305 135.331 219.605 135.031Z" fill="#322015"/>
</g>
</g>
<path d="M47.2054 118.631C47.2054 118.631 31.2054 126.331 27.9054 145.331C27.6054 146.931 27.5054 148.631 27.6054 150.331C27.6054 151.431 28.4054 152.431 29.5054 152.631C30.6054 152.831 32.0054 153.031 33.1054 153.231C34.3054 153.431 35.5054 152.931 36.2054 151.931C38.2054 149.031 43.0054 142.931 51.0054 139.631C51.0054 139.631 59.5054 139.031 61.9054 132.931C64.3054 126.831 54.8054 117.131 52.4054 117.131C50.1054 117.231 47.2054 118.631 47.2054 118.631Z" fill="#D29F7E"/>
<path d="M29.8054 152.731C29.8054 152.731 30.3054 148.431 31.2054 146.231" stroke="#1B1C1E" stroke-width="1.2604" stroke-miterlimit="10" stroke-linecap="round" stroke-linejoin="round"/>
<path d="M32.5054 153.231C32.5054 153.231 33.8054 148.331 35.8054 146.531" stroke="#1B1C1E" stroke-width="1.2604" stroke-miterlimit="10" stroke-linecap="round" stroke-linejoin="round"/>
<mask id="mask2_2_275" style="mask-type:luminance" maskUnits="userSpaceOnUse" x="27" y="117" width="36" height="37">
<path d="M47.2054 118.631C47.2054 118.631 31.2054 126.331 27.9054 145.331C27.6054 146.931 27.5054 148.631 27.6054 150.331C27.6054 151.431 28.4054 152.431 29.5054 152.631C30.6054 152.831 32.0054 153.031 33.1054 153.231C34.3054 153.431 35.5054 152.931 36.2054 151.931C38.2054 149.031 43.0054 142.931 51.0054 139.631C51.0054 139.631 59.5054 139.031 61.9054 132.931C64.3054 126.831 54.8054 117.131 52.4054 117.131C50.1054 117.231 47.2054 118.631 47.2054 118.631Z" fill="white"/>
</mask>
<g mask="url(#mask2_2_275)">
<path d="M49.6054 129.931C49.5054 129.931 49.5054 130.031 49.4054 130.031C49.4054 129.931 49.5054 129.931 49.6054 129.931Z" fill="#322015"/>
<path d="M49.4054 123.531H49.7054C49.5054 123.631 49.4054 123.631 49.4054 123.531Z" fill="#322015"/>
<path d="M48.0054 130.431C47.9054 130.531 47.9054 130.531 47.7054 130.631L48.0054 130.431Z" fill="#322015"/>
<path d="M50.0054 136.031V136.131C49.9054 136.131 50.0054 136.031 50.0054 136.031Z" fill="#322015"/>
<path d="M49.7054 135.831C49.6054 135.931 49.6054 135.931 49.7054 135.831V135.831Z" fill="#322015"/>
<path d="M50.7054 135.431C50.6054 135.431 50.6054 135.531 50.5054 135.531C50.5054 135.531 50.6054 135.431 50.7054 135.431Z" fill="#322015"/>
<path d="M49.7054 129.931H49.6054C49.7054 129.831 49.7054 129.831 49.7054 129.931Z" fill="#322015"/>
<path d="M49.6054 121.231C49.6054 121.131 49.7054 121.131 49.7054 121.031C49.7054 121.131 49.7054 121.231 49.6054 121.231Z" fill="#322015"/>
<path d="M49.8054 134.031C49.0054 134.031 49.8054 134.231 49.1054 134.231C49.3054 134.131 49.4054 134.031 49.0054 133.931C48.6054 134.031 49.0054 134.131 48.4054 134.231L48.6054 134.031C48.3054 133.931 47.8054 134.131 47.8054 134.031C48.7054 133.831 47.5054 133.531 47.6054 133.331L47.5054 133.431L47.1054 133.131C47.1054 133.131 47.2054 133.131 47.3054 133.131C46.9054 133.031 46.6054 132.831 46.7054 132.631C47.2054 132.531 46.9054 131.931 47.3054 131.831C47.2054 131.931 47.2054 132.031 47.3054 132.131H47.9054C47.9054 131.931 47.4054 132.131 47.7054 131.931C48.5054 131.931 47.7054 132.231 47.8054 132.331C48.0054 132.231 48.1054 132.231 48.2054 132.131C48.2054 132.431 48.5054 132.731 47.7054 132.931C47.9054 133.031 48.2054 132.931 48.3054 132.931C47.8054 133.131 48.8054 133.031 48.3054 133.231C49.0054 133.131 48.7054 132.831 49.1054 132.631C48.5054 132.331 49.1054 132.031 49.2054 131.731C48.7054 131.731 48.2054 131.931 47.9054 131.831C47.5054 131.531 48.2054 131.531 48.5054 131.331C48.3054 131.131 47.6054 131.331 47.6054 131.031L47.2054 131.231C46.4054 131.031 47.5054 131.031 47.3054 130.931C47.5054 130.931 47.7054 130.931 47.7054 131.131C48.0054 131.131 48.1054 131.031 48.1054 130.931C48.5054 130.831 48.9054 130.831 48.7054 130.631C48.2054 130.731 48.4054 130.431 48.1054 130.431L48.0054 130.531C48.2054 130.331 48.1054 130.231 48.2054 130.131H48.1054C48.3054 130.031 48.9054 129.931 48.7054 129.831C48.5054 129.831 47.9054 130.031 48.0054 129.831C47.7054 129.831 47.6054 130.031 47.8054 130.231C47.7054 130.031 47.1054 129.931 47.1054 130.231C46.7054 130.131 47.3054 130.031 47.1054 129.931C47.2054 129.931 47.4054 129.931 47.5054 129.931C46.9054 129.931 47.5054 129.531 47.9054 129.531L47.6054 129.731C48.1054 129.731 48.4054 129.531 48.6054 129.631C47.9054 129.531 49.0054 129.131 48.3054 129.031L48.7054 129.131C48.5054 128.731 49.3054 128.431 49.5054 128.031C49.3054 128.131 48.5054 128.131 48.7054 128.431C48.5054 128.031 47.9054 128.331 47.5054 128.131C47.2054 127.831 48.3054 128.031 48.5054 127.931H48.3054C49.2054 127.731 48.1054 127.131 48.7054 126.731C48.5054 126.731 48.6054 126.831 48.5054 126.831C48.0054 126.631 48.6054 126.631 48.8054 126.531C48.7054 126.331 48.5054 126.131 47.9054 126.231C47.8054 126.031 48.3054 126.231 48.4054 126.131H48.3054L49.0054 125.931C48.8054 125.731 48.5054 125.531 47.9054 125.431C48.0054 125.031 49.2054 125.331 49.5054 125.031C49.2054 124.831 49.0054 125.031 48.8054 125.031L48.9054 124.731C48.2054 124.831 48.6054 125.031 47.8054 125.031C48.6054 124.831 48.0054 124.731 48.6054 124.431H48.7054C49.2054 124.331 48.9054 124.031 49.0054 123.831C48.7054 123.931 48.6054 124.131 48.5054 124.231C48.3054 124.031 48.5054 123.531 49.2054 123.331C49.1054 123.231 48.8054 122.931 48.5054 123.131C48.4054 122.731 49.5054 123.031 49.3054 122.631H48.8054C48.1054 122.231 49.5054 121.931 48.9054 121.531H49.5054C49.2054 121.431 49.1054 121.231 48.9054 121.231L48.7054 121.431C48.2054 121.231 49.2054 121.331 48.9054 121.031C49.1054 121.031 49.5054 121.231 49.7054 121.231C49.3054 122.031 50.1054 122.831 49.4054 123.531C49.3054 123.531 49.2054 123.431 49.1054 123.431C49.2054 123.531 49.1054 123.631 49.4054 123.631C49.2054 123.831 50.0054 124.031 50.0054 124.231C49.6054 124.331 50.2054 124.631 49.4054 124.531L49.9054 124.731C49.6054 124.731 49.3054 124.731 49.1054 124.831C49.2054 124.931 49.4054 125.031 49.6054 124.931C49.9054 125.531 49.8054 126.131 49.5054 126.631L49.9054 126.531C50.1054 126.631 49.3054 127.031 50.2054 126.931C49.8054 127.231 50.4054 127.631 49.5054 127.631C50.4054 127.831 49.9054 128.331 49.7054 128.631C48.9054 128.531 49.5054 128.931 49.1054 129.031C49.7054 129.131 49.7054 128.731 50.1054 128.731C49.1054 129.131 50.8054 129.831 49.2054 129.931C49.3054 129.931 49.3054 129.931 49.4054 129.931C49.4054 130.031 49.7054 130.131 49.7054 130.231C49.4054 130.231 49.3054 130.131 49.2054 130.331C49.3054 130.431 49.7054 130.431 49.9054 130.431C49.5054 130.731 49.4054 131.131 48.8054 131.231C49.0054 131.331 49.3054 131.431 49.4054 131.331C48.9054 131.731 49.5054 131.731 49.2054 132.231C49.2054 132.031 49.9054 132.131 49.6054 131.931C50.5054 132.131 49.4054 132.631 49.9054 132.931L49.3054 133.131C49.2054 133.331 49.7054 133.331 49.9054 133.231C50.3054 133.631 49.9054 133.731 49.9054 134.031C50.0054 134.031 50.1054 134.031 50.1054 134.031V134.431C50.0054 134.431 49.7054 134.631 49.3054 134.631C49.8054 134.331 50.0054 134.231 49.8054 134.031Z" fill="#322015"/>
<path d="M47.0054 130.731C47.1054 130.731 47.2054 130.831 47.2054 130.831C47.1054 130.831 47.0054 130.831 47.0054 130.731Z" fill="#322015"/>
<path d="M48.7054 138.131C47.8054 138.131 48.8054 137.831 48.6054 137.731C48.5054 137.931 48.0054 137.931 47.7054 137.931C48.8054 137.631 47.5054 137.731 47.7054 137.331C47.3054 137.331 47.3054 137.531 46.9054 137.631C47.2054 137.431 47.3054 137.031 47.9054 137.031C47.9054 136.631 47.7054 136.431 47.7054 136.231C47.5054 136.531 47.1054 136.331 46.6054 136.531C47.3054 136.231 48.2054 135.631 49.0054 135.231C48.3054 135.231 48.2054 135.231 47.6054 135.231C47.1054 134.831 48.2054 135.131 48.0054 134.731L48.1054 134.931C48.3054 134.731 48.9054 134.731 49.4054 134.631L49.3054 135.131C49.8054 135.131 49.7054 134.831 49.8054 134.731C50.4054 134.531 50.2054 134.931 50.7054 134.931C50.3054 135.031 50.5054 135.231 50.3054 135.331H50.6054C50.9054 135.531 50.2054 135.731 50.3054 135.931C50.4054 135.931 50.4054 135.931 50.5054 135.931C50.2054 136.031 49.9054 136.131 49.8054 136.231V136.131C49.2054 136.331 48.8054 136.731 48.2054 136.531L48.4054 137.031C49.1054 136.931 50.1054 136.831 50.1054 136.531H50.4054C50.8054 136.731 49.9054 137.131 49.3054 137.031C47.7054 137.331 49.3054 137.731 48.6054 138.131C49.0054 138.131 49.2054 137.931 49.5054 137.831C49.5054 137.731 49.5054 137.631 49.2054 137.631C49.4054 137.131 50.6054 137.631 50.4054 137.131C50.2054 136.931 49.7054 137.431 49.6054 137.131L50.8054 136.831C50.8054 137.031 50.6054 137.231 50.5054 137.431C49.8054 138.531 50.5054 139.131 50.5054 139.131C50.5054 139.831 50.5054 140.631 50.6054 141.331C50.6054 142.031 50.7054 142.731 50.8054 143.231C50.7054 143.531 50.7054 143.431 50.0054 144.331C49.7054 144.431 49.6054 144.131 49.4054 144.431C49.7054 144.131 49.9054 143.931 49.8054 143.731C49.4054 143.831 49.7054 144.031 49.6054 144.031C49.4054 144.131 49.3054 144.231 49.3054 144.331C48.5054 144.331 48.5054 143.631 49.2054 143.231C48.7054 143.131 48.6054 143.531 48.3054 143.831C47.7054 143.031 47.7054 142.431 47.5054 141.631C48.3054 141.531 48.0054 141.431 48.5054 141.331H48.2054C48.3054 141.331 48.8054 141.131 49.0054 141.331C48.4054 140.931 49.9054 140.631 50.2054 140.331L49.8054 140.431C49.8054 140.131 49.8054 140.131 50.0054 139.831C49.2054 139.531 49.9054 140.231 48.9054 140.231L49.0054 140.131C48.6054 140.231 48.0054 140.331 47.7054 140.531C48.3054 140.031 47.4054 139.931 47.8054 139.531C47.4054 139.631 47.1054 140.031 47.0054 140.131C46.9054 140.031 47.2054 139.731 46.8054 139.731L47.3054 139.631C47.3054 139.331 46.8054 139.731 46.4054 139.631C46.6054 138.331 48.4054 138.731 48.7054 138.131Z" fill="#322015"/>
<path d="M48.1054 131.931C48.1054 132.031 48.1054 132.031 48.1054 132.131C48.0054 132.031 48.0054 132.031 48.1054 131.931Z" fill="#322015"/>
<path d="M46.3054 133.331C46.6054 133.331 46.6054 133.231 46.9054 133.231C46.7054 133.331 46.7054 133.531 46.3054 133.331Z" fill="#322015"/>
<path d="M48.5054 116.931C48.6054 116.731 49.1054 116.731 49.4054 116.831L48.9054 117.231C49.0054 117.131 49.0054 117.031 48.5054 116.931Z" fill="#322015"/>
<path d="M48.5054 117.231C48.8054 117.331 49.3054 117.531 48.8054 117.631C48.9054 117.431 48.1054 117.431 48.5054 117.231Z" fill="#322015"/>
<path d="M48.8054 118.831L48.5054 118.431C47.8054 118.231 48.3054 118.631 48.0054 118.631C47.9054 118.231 48.1054 118.431 48.6054 118.231C48.6054 118.131 48.9054 118.031 49.1054 117.931C48.4054 118.331 50.0054 118.531 48.8054 118.831Z" fill="#322015"/>
<path d="M48.2054 117.931H48.5054L48.2054 118.031V117.931Z" fill="#322015"/>
<path d="M49.4054 119.831C50.2054 120.131 48.9054 120.231 49.2054 120.531C49.2054 120.531 49.3054 120.531 49.4054 120.531L49.3054 120.731H49.5054C49.0054 120.631 48.8054 120.931 48.4054 120.931C47.9054 120.631 49.0054 120.831 48.5054 120.631C48.3054 120.631 48.0054 120.631 47.8054 120.731C48.1054 120.631 48.3054 120.631 48.6054 120.531C48.7054 120.431 48.4054 120.431 48.2054 120.331C48.5054 120.231 49.2054 120.231 49.1054 119.931C48.7054 119.731 48.4054 119.931 48.6054 119.731C49.3054 119.931 48.5054 119.431 49.0054 119.331C48.9054 119.131 48.4054 118.931 48.2054 118.931C48.8054 119.031 49.3054 118.831 49.5054 118.731L49.0054 119.031L49.7054 119.231C49.2054 119.431 49.3054 119.631 49.4054 119.831Z" fill="#322015"/>
<path d="M47.8054 120.631C47.8054 120.631 47.7054 120.631 47.7054 120.731C47.7054 120.731 47.7054 120.731 47.8054 120.631Z" fill="#322015"/>
<path d="M48.0054 118.931L47.8054 119.031L47.6054 118.931H48.0054Z" fill="#322015"/>
<path d="M47.3054 120.831C47.3054 120.731 47.5054 120.831 47.5054 120.831H47.3054Z" fill="#322015"/>
<path d="M47.7054 121.031L48.1054 121.231H47.8054L47.7054 121.031Z" fill="#322015"/>
<path d="M47.8054 126.031C47.6054 125.831 48.0054 125.931 48.4054 125.931C48.5054 126.131 48.0054 125.831 47.8054 126.031Z" fill="#322015"/>
<path d="M47.2054 129.131C46.9054 128.931 47.4054 128.831 47.3054 128.631C47.5054 128.731 47.4054 128.931 47.2054 129.131Z" fill="#322015"/>
<path d="M45.5054 130.431C45.7054 130.431 45.7054 130.331 45.8054 130.431L46.6054 130.231C47.0054 130.431 45.9054 130.431 45.5054 130.431Z" fill="#322015"/>
<path d="M45.4054 131.931L45.7054 131.731V131.831C46.0054 131.731 46.2054 131.731 46.5054 131.631C46.4054 131.731 46.0054 131.931 45.4054 131.931Z" fill="#322015"/>
<path d="M46.7054 131.331C46.7054 131.431 46.7054 131.431 46.7054 131.331C46.4054 131.431 46.5054 131.431 46.7054 131.331Z" fill="#322015"/>
<path d="M46.6054 131.531C46.7054 131.431 46.8054 131.531 46.6054 131.531V131.531Z" fill="#322015"/>
<path d="M45.9054 132.131L45.8054 132.531L45.6054 132.331C46.1054 132.331 45.3054 132.131 45.9054 132.131Z" fill="#322015"/>
<path d="M46.3054 134.331H46.8054C46.9054 134.631 45.8054 134.931 46.7054 135.131C46.4054 135.031 46.1054 135.331 46.0054 135.031C46.4054 134.931 46.5054 134.531 46.3054 134.331Z" fill="#322015"/>
<path d="M47.1054 135.231C47.2054 135.231 47.4054 135.231 47.5054 135.231C47.6054 135.331 47.3054 135.431 47.1054 135.431C47.8054 135.331 46.7054 135.431 47.1054 135.231Z" fill="#322015"/>
<path d="M47.1054 136.531C47.1054 136.431 47.1054 136.331 47.3054 136.431C47.3054 136.631 46.7054 136.631 46.4054 136.731C46.1054 136.631 46.9054 136.331 47.1054 136.531Z" fill="#322015"/>
<path d="M51.0054 138.031C50.6054 138.031 50.6054 137.831 50.8054 137.831C50.7054 137.931 50.8054 138.031 51.0054 138.031Z" fill="#322015"/>
<path d="M47.4054 138.431L47.3054 138.331L47.9054 138.231L47.4054 138.431Z" fill="#322015"/>
<path d="M47.2054 139.831L46.8054 140.031V139.831H47.2054Z" fill="#322015"/>
<path d="M47.3054 140.131V140.331L47.1054 140.231C47.0054 140.131 47.3054 140.131 47.3054 140.131Z" fill="#322015"/>
<path d="M47.3054 140.831C47.3054 140.831 47.3054 140.831 47.2054 140.731L47.5054 140.431L47.3054 140.831Z" fill="#322015"/>
<path d="M50.7054 143.231C51.0054 142.931 50.9054 143.131 51.0054 143.031C50.9054 143.131 50.5054 143.531 50.7054 143.231Z" fill="#322015"/>
</g>
<path d="M49.1054 3.33073C46.6054 5.63073 43.5054 9.93072 43.7054 17.0307C43.7054 17.0307 65.8054 2.93073 56.1054 1.23073C53.6054 0.730728 51.0054 1.63073 49.1054 3.33073Z" fill="#1B1C1E"/>
<path d="M79.9054 51.2307C79.9054 51.2307 77.6054 70.2307 96.1054 75.4307C114.605 80.6307 187.905 72.4307 212.005 70.9307C231.805 69.6307 243.705 80.7307 242.605 100.031C242.105 109.931 242.205 117.031 242.705 122.031C243.505 131.031 250.605 150.531 253.805 156.431C255.405 159.431 254.805 163.031 252.505 165.431L251.405 166.431C249.705 168.031 247.205 168.331 245.205 167.031C240.105 163.631 230.005 154.831 218.805 133.731C218.605 133.331 218.305 132.831 218.105 132.331C216.005 128.331 214.105 126.431 214.105 126.431C214.105 126.431 208.405 123.831 194.905 123.631C184.405 123.531 169.305 124.831 148.405 130.031C116.305 138.031 84.3054 138.331 77.4054 134.431C77.4054 134.431 72.6054 145.431 72.6054 167.031C72.6054 168.931 71.1054 170.431 69.2054 170.531L64.4054 170.731C62.9054 170.831 61.5054 169.931 60.8054 168.631C60.4054 167.831 59.9054 166.731 59.3054 165.431C57.1054 160.531 54.0054 152.331 51.1054 140.331C49.7054 134.431 48.4054 127.631 47.2054 119.931C47.1054 119.231 47.0054 118.631 46.9054 117.931C42.3054 83.4307 46.5054 51.7307 46.5054 51.7307C46.5054 51.7307 9.70541 64.0307 1.00541 38.3307C0.10541 35.7307 1.90542 32.9307 4.60542 32.7307C5.00542 32.7307 5.50541 32.7307 6.00541 32.7307C12.5054 32.9307 31.3054 34.1307 38.5054 20.3307C43.8054 10.3307 52.7054 -1.36929 63.9054 0.130715C64.4054 0.230714 64.8054 0.230719 65.3054 0.330719C65.7054 0.430719 79.6054 18.1307 79.9054 51.2307Z" fill="#D29F7E"/>
<path d="M51.1054 139.731C49.8054 134.031 48.5054 127.431 47.4054 120.031C47.3054 119.631 47.3054 119.331 47.2054 118.931" stroke="#1B1C1E" stroke-width="1.2604" stroke-miterlimit="10" stroke-linecap="round" stroke-linejoin="round"/>
<path d="M65.7054 0.430711C65.7054 0.430711 62.7054 0.430714 64.1054 7.23071C65.2054 12.9307 67.2054 18.9307 63.7054 34.8307C59.7054 52.9307 68.9054 57.1307 79.1054 52.6307C89.4054 48.1307 87.6054 38.1307 85.6054 28.4307C83.6054 18.7307 74.9054 -0.469289 65.7054 0.430711Z" fill="#1B1C1E"/>
<path d="M0.00540833 35.5307C-0.0945917 33.9307 1.20541 32.5307 2.80541 32.4307C5.10541 32.3307 8.70541 32.2307 10.6054 32.0307C13.5054 31.7307 14.9054 35.9307 10.7054 40.6307C6.50541 45.3307 2.30541 43.2307 0.605414 38.1307C0.205414 37.1307 0.105408 36.3307 0.00540833 35.5307Z" fill="#1B1C1E"/>
<path d="M30.1054 54.7307C30.1054 54.7307 39.7054 54.5307 40.7054 41.5307" stroke="#1B1C1E" stroke-width="1.2604" stroke-linecap="round" stroke-linejoin="round"/>
<path d="M38.9054 40.9307C38.9054 40.9307 40.6054 42.2307 42.4054 41.7307" stroke="#1B1C1E" stroke-width="1.2604" stroke-miterlimit="10" stroke-linecap="round" stroke-linejoin="round"/>
<path d="M46.4054 28.6307C46.2054 30.0307 45.1054 31.1307 44.1054 30.9307C43.1054 30.7307 42.6054 29.5307 42.8054 28.0307C43.0054 26.6307 44.0054 25.5307 45.0054 25.7307C46.0054 25.9307 46.6054 27.2307 46.4054 28.6307Z" fill="#1B1C1E"/>
<path d="M83.0054 124.331C83.0054 124.331 79.8054 129.131 77.4054 134.631" stroke="#1B1C1E" stroke-width="1.2604" stroke-miterlimit="10" stroke-linecap="round" stroke-linejoin="round"/>
<path d="M214.205 126.531C214.205 126.531 210.605 121.731 208.205 114.931" stroke="#1B1C1E" stroke-width="1.2604" stroke-miterlimit="10" stroke-linecap="round" stroke-linejoin="round"/>
<path d="M81.9054 63.6307C76.1054 66.5307 70.4054 68.2307 65.5054 69.2307C57.1054 70.9307 51.1054 70.5307 51.1054 70.5307C52.0054 69.4307 52.6054 67.9307 52.7054 66.2307C52.7054 65.3307 52.6054 64.5307 52.3054 63.7307C52.3054 63.7307 69.2054 62.5307 80.0054 57.5307C80.4054 59.3307 81.0054 61.4307 81.9054 63.6307Z" fill="#D1493B"/>
<path d="M69.1054 170.531C69.1054 170.531 69.0054 163.531 68.9054 161.731" stroke="#1B1C1E" stroke-width="1.2604" stroke-miterlimit="10" stroke-linecap="round" stroke-linejoin="round"/>
<path d="M250.905 167.231C250.905 167.231 247.805 165.331 245.605 162.931" stroke="#1B1C1E" stroke-width="1.2604" stroke-miterlimit="10" stroke-linecap="round" stroke-linejoin="round"/>
<path d="M253.305 165.031C253.305 165.031 251.205 162.731 249.905 160.831" stroke="#1B1C1E" stroke-width="1.2604" stroke-miterlimit="10" stroke-linecap="round" stroke-linejoin="round"/>
<path d="M65.3054 170.931C65.1054 170.231 64.2054 167.831 62.9054 163.231" stroke="#1B1C1E" stroke-width="1.2604" stroke-miterlimit="10" stroke-linecap="round" stroke-linejoin="round"/>
<path d="M53.4054 67.0307C53.3054 70.9307 50.6054 73.9307 47.5054 73.8307C46.4054 73.8307 45.4054 73.3307 44.5054 72.7307C42.9054 71.4307 41.9054 69.2307 42.0054 66.7307C42.1054 62.8307 44.8054 59.8307 47.9054 59.9307C49.8054 60.0307 51.4054 61.1307 52.4054 62.9307C53.1054 64.0307 53.5054 65.5307 53.4054 67.0307Z" fill="#FFAE1F"/>
<path d="M52.5054 62.8307C53.2054 64.0307 53.5054 65.4307 53.5054 67.0307C53.4054 70.9307 50.7054 73.9307 47.6054 73.8307C46.5054 73.8307 45.5054 73.3307 44.6054 72.7307" stroke="#1B1C1E" stroke-width="1.2604" stroke-miterlimit="10" stroke-linecap="round" stroke-linejoin="round"/>
<mask id="mask3_2_275" style="mask-type:luminance" maskUnits="userSpaceOnUse" x="46" y="42" width="13" height="18">
<path d="M55.3054 57.4307C50.3054 61.7307 46.0054 58.7307 46.0054 58.7307C46.4054 54.3307 46.7054 51.8307 46.7054 51.8307C46.7054 51.8307 51.5054 50.6307 56.0054 45.8307L58.5054 42.4307C58.6054 42.4307 60.3054 53.1307 55.3054 57.4307Z" fill="white"/>
</mask>
<g mask="url(#mask3_2_275)">
<g opacity="0.88">
<path d="M51.6054 49.7307C51.6054 49.8307 51.6054 49.8307 51.7054 49.9307C51.7054 49.9307 51.7054 49.8307 51.6054 49.7307Z" fill="#322015"/>
<path d="M54.7054 47.1307L54.5054 46.9307C54.5054 47.0307 54.6054 47.1307 54.7054 47.1307Z" fill="#322015"/>
<path d="M52.3054 51.1307C52.3054 51.2307 52.3054 51.3307 52.4054 51.4307L52.3054 51.1307Z" fill="#322015"/>
<path d="M47.8054 54.9307L47.9054 55.1307C47.9054 55.1307 47.9054 55.0307 47.8054 54.9307Z" fill="#322015"/>
<path d="M48.4054 50.9307C48.4054 51.0307 48.4054 51.0307 48.5054 51.1307C48.4054 51.0307 48.5054 50.9307 48.4054 50.9307Z" fill="#322015"/>
<path d="M55.5054 45.8307V45.7307C55.4054 45.7307 55.4054 45.8307 55.5054 45.8307Z" fill="#322015"/>
<path d="M49.5054 51.1307C49.9054 51.7307 49.4054 51.2307 49.7054 51.7307C49.7054 51.5307 49.7054 51.4307 49.9054 51.7307C50.0054 52.0307 49.7054 51.7307 50.0054 52.2307V52.0307C50.2054 52.2307 50.3054 52.6307 50.4054 52.6307C50.1054 51.9307 50.9054 52.7307 50.9054 52.5307V52.6307L51.2054 52.8307C51.2054 52.8307 51.2054 52.7307 51.1054 52.7307C51.4054 53.0307 51.6054 53.1307 51.7054 53.0307C51.5054 52.6307 52.0054 52.6307 51.9054 52.3307C51.9054 52.4307 51.9054 52.5307 51.7054 52.4307L51.4054 52.0307C51.5054 51.9307 51.7054 52.4307 51.6054 52.1307C51.2054 51.5307 51.4054 52.2307 51.3054 52.2307C51.2054 52.0307 51.2054 51.9307 51.2054 51.8307C51.0054 51.9307 50.7054 51.8307 51.0054 52.4307C50.9054 52.3307 50.7054 52.0307 50.7054 52.0307C50.8054 52.4307 50.4054 51.7307 50.5054 52.1307C50.2054 51.5307 50.5054 51.7307 50.4054 51.3307C50.8054 51.6307 50.7054 51.1307 50.8054 50.9307C51.1054 51.3307 51.2054 51.7307 51.4054 51.9307C51.7054 52.0307 51.4054 51.6307 51.3054 51.3307C51.5054 51.4307 51.8054 51.9307 52.0054 51.8307L52.1054 52.1307C52.6054 52.6307 52.0054 51.8307 52.2054 51.9307C52.1054 51.8307 52.0054 51.6307 51.9054 51.7307C51.7054 51.5307 51.7054 51.4307 51.8054 51.3307C51.6054 51.0307 51.4054 50.7307 51.6054 50.8307C51.8054 51.2307 51.9054 51.0307 52.0054 51.1307V51.2307C52.0054 51.0307 52.1054 51.0307 52.1054 50.9307L52.2054 51.0307C52.2054 50.8307 51.9054 50.4307 52.0054 50.4307C52.1054 50.6307 52.4054 51.1307 52.4054 50.9307C52.6054 51.1307 52.5054 51.3307 52.3054 51.2307C52.5054 51.2307 52.8054 51.6307 52.7054 51.7307C53.0054 52.0307 52.7054 51.5307 52.9054 51.6307C52.8054 51.5307 52.7054 51.4307 52.7054 51.3307C53.0054 51.7307 52.9054 51.2307 52.7054 50.9307L52.8054 51.2307C52.5054 50.9307 52.5054 50.6307 52.3054 50.4307C52.8054 50.9307 52.4054 49.9307 52.8054 50.3307L52.5054 50.1307C52.8054 50.1307 52.5054 49.4307 52.5054 49.1307C52.6054 49.3307 53.1054 49.8307 52.8054 49.8307C53.1054 49.7307 53.4054 50.3307 53.7054 50.5307C54.0054 50.5307 53.3054 49.9307 53.2054 49.7307V49.9307C52.7054 49.2307 53.7054 49.7307 53.5054 49.1307C53.7054 49.2307 53.6054 49.2307 53.6054 49.3307C54.0054 49.5307 53.6054 49.2307 53.5054 49.0307C53.6054 49.0307 53.9054 49.0307 54.2054 49.4307C54.4054 49.4307 54.0054 49.2307 53.9054 49.0307L54.0054 49.1307L53.7054 48.6307C53.9054 48.6307 54.2054 48.7307 54.6054 49.0307C54.7054 48.7307 53.8054 48.2307 53.7054 47.9307C54.0054 48.0307 54.0054 48.2307 54.1054 48.3307L54.2054 48.1307C54.6054 48.5307 54.3054 48.5307 54.8054 48.9307C54.4054 48.3307 54.8054 48.6307 54.6054 48.2307H54.5054C54.2054 47.8307 54.6054 47.9307 54.6054 47.7307C54.8054 47.9307 54.7054 48.0307 54.8054 48.2307C55.1054 48.2307 55.1054 47.8307 54.7054 47.4307C54.8054 47.4307 55.1054 47.4307 55.2054 47.6307C55.4054 47.4307 54.6054 47.0307 54.8054 46.9307L55.2054 47.2307C55.9054 47.4307 55.0054 46.4307 55.6054 46.6307L55.1054 46.3307C55.3054 46.4307 55.5054 46.4307 55.7054 46.5307L55.8054 46.7307C56.3054 46.9307 55.5054 46.4307 55.8054 46.4307C55.7054 46.3307 55.3054 46.2307 55.1054 46.1307C55.1054 46.7307 54.1054 46.6307 54.3054 47.4307C54.4054 47.4307 54.4054 47.5307 54.5054 47.5307C54.4054 47.5307 54.4054 47.6307 54.2054 47.4307C54.2054 47.6307 53.6054 47.2307 53.6054 47.3307C53.9054 47.6307 53.3054 47.4307 53.9054 47.8307L53.5054 47.6307C53.7054 47.8307 53.9054 48.0307 54.0054 48.1307C53.9054 48.1307 53.7054 48.0307 53.6054 47.8307C53.2054 47.9307 53.0054 48.3307 52.9054 48.7307L52.7054 48.4307C52.5054 48.4307 52.9054 49.0307 52.4054 48.4307C52.5054 48.7307 51.9054 48.6307 52.5054 49.1307C51.9054 48.6307 52.0054 49.1307 51.9054 49.4307C52.4054 49.9307 51.9054 49.7307 52.1054 50.0307C51.7054 49.6307 51.9054 49.4307 51.6054 49.2307C52.0054 50.0307 50.7054 49.2307 51.5054 50.3307C51.4054 50.3307 51.4054 50.2307 51.4054 50.2307C51.4054 50.2307 51.2054 50.1307 51.1054 50.1307C51.2054 50.3307 51.4054 50.3307 51.4054 50.5307C51.3054 50.5307 51.1054 50.2307 51.0054 50.1307C51.1054 50.4307 50.9054 50.7307 51.3054 51.2307C51.2054 51.1307 50.9054 50.9307 50.9054 50.8307C51.0054 51.3307 50.6054 50.9307 50.6054 51.3307C50.7054 51.2307 50.3054 50.8307 50.5054 50.9307C50.0054 50.3307 50.2054 51.2307 49.8054 51.0307L50.0054 51.5307C49.9054 51.6307 49.7054 51.2307 49.6054 51.0307C49.3054 50.9307 49.3054 51.2307 49.2054 51.3307C49.2054 51.3307 49.1054 51.2307 49.2054 51.2307L49.0054 51.3307C49.0054 51.4307 49.1054 51.7307 49.3054 52.0307C49.4054 51.2307 49.3054 51.0307 49.5054 51.1307Z" fill="#322015"/>
<path d="M52.7054 51.9307C52.6054 51.8307 52.5054 51.8307 52.5054 51.8307C52.6054 51.8307 52.6054 51.9307 52.7054 51.9307Z" fill="#322015"/>
<path d="M47.7054 53.3307C48.0054 54.0307 47.8054 53.1307 48.0054 53.3307C47.9054 53.4307 48.1054 53.9307 48.2054 54.1307C48.0054 53.1307 48.4054 54.2307 48.6054 53.9307C48.7054 54.2307 48.6054 54.3307 48.8054 54.6307C48.8054 54.3307 49.0054 54.1307 48.8054 53.6307C49.0054 53.5307 49.3054 53.6307 49.4054 53.5307C49.3054 53.8307 49.6054 54.0307 49.7054 54.5307C49.6054 53.8307 49.6054 53.0307 49.4054 52.2307C49.7054 52.7307 49.8054 52.8307 50.0054 53.3307C50.5054 53.5307 49.8054 52.8307 50.1054 52.8307H49.9054C49.9054 52.6307 49.6054 52.1307 49.5054 51.7307L49.3054 51.9307C49.1054 51.5307 49.3054 51.5307 49.3054 51.4307C49.1054 50.9307 49.0054 51.2307 48.8054 50.8307C48.9054 51.1307 48.8054 51.1307 48.8054 51.2307L48.7054 51.0307C48.5054 50.9307 48.7054 51.4307 48.6054 51.4307C48.6054 51.3307 48.5054 51.3307 48.5054 51.3307C48.6054 51.5307 48.7054 51.8307 48.6054 51.9307C48.7054 52.4307 48.6054 52.8307 49.1054 53.3307H48.7054C48.5054 52.8307 48.2054 51.9307 48.3054 51.8307L48.2054 51.6307C48.0054 51.3307 48.1054 52.2307 48.4054 52.6307C48.9054 53.9307 48.0054 52.8307 48.0054 53.5307C47.8054 53.1307 47.9054 53.0307 47.8054 52.7307C47.8054 52.6307 47.9054 52.6307 48.0054 52.9307C48.2054 52.6307 47.5054 51.8307 47.8054 51.8307C48.0054 51.9307 47.9054 52.4307 48.1054 52.4307L47.8054 51.4307C47.7054 51.5307 47.7054 51.7307 47.6054 51.9307C47.5054 52.4307 47.2054 52.5307 47.0054 52.5307C46.8054 52.5307 46.7054 52.4307 46.7054 52.4307C45.9054 52.8307 45.1054 53.1307 44.2054 53.3307C43.9054 53.5307 43.9054 53.4307 43.8054 54.5307C43.9054 54.7307 44.1054 54.6307 44.0054 55.0307C44.0054 54.6307 44.1054 54.4307 44.3054 54.4307C44.4054 54.8307 44.2054 54.6307 44.2054 54.7307C44.2054 54.9307 44.2054 55.0307 44.1054 55.0307C44.3054 55.6307 44.7054 55.4307 44.7054 54.6307C44.9054 55.0307 44.7054 55.2307 44.6054 55.5307C45.2054 55.7307 45.6054 55.6307 46.2054 55.5307C46.0054 54.8307 46.2054 55.1307 46.1054 54.6307L46.2054 54.8307C46.1054 54.7307 46.1054 54.2307 46.0054 54.1307C46.4054 54.5307 46.1054 53.1307 46.2054 52.8307L46.3054 53.1307C46.4054 53.0307 46.5054 53.0307 46.6054 52.8307C47.1054 53.4307 46.4054 53.0307 46.7054 53.8307V53.6307C46.8054 53.9307 46.9054 54.5307 46.9054 54.8307C47.0054 54.2307 47.4054 54.9307 47.5054 54.4307C47.6054 54.8307 47.4054 55.2307 47.4054 55.2307C47.5054 55.2307 47.6054 54.9307 47.7054 55.2307L47.6054 54.7307C47.8054 54.6307 47.7054 55.1307 47.9054 55.4307C48.4054 55.0307 47.5054 53.7307 47.7054 53.3307Z" fill="#322015"/>
<path d="M51.5054 51.6307C51.4054 51.6307 51.4054 51.6307 51.5054 51.6307C51.4054 51.6307 51.4054 51.7307 51.5054 51.6307Z" fill="#322015"/>
<path d="M51.6054 53.4307C51.5054 53.2307 51.5054 53.2307 51.4054 52.9307C51.4054 53.1307 51.3054 53.2307 51.6054 53.4307Z" fill="#322015"/>
<path d="M58.8054 42.8307L58.7054 42.7307C58.7054 42.7307 58.8054 42.7307 58.8054 42.8307Z" fill="#322015"/>
<path d="M59.1054 42.9307L59.5054 43.1307L59.3054 42.8307L59.1054 42.9307C59.0054 42.8307 58.9054 42.8307 58.8054 42.8307L59.1054 42.9307Z" fill="#322015"/>
<path d="M58.0054 43.0307C58.2054 43.0307 58.4054 43.2307 58.6054 43.3307C58.8054 43.2307 58.2054 42.9307 58.4054 42.9307C58.7054 43.2307 58.7054 42.9307 59.0054 43.0307C58.6054 42.9307 58.3054 42.8307 58.1054 42.9307L58.4054 43.0307C58.3054 43.2307 58.2054 43.0307 58.0054 43.0307Z" fill="#322015"/>
<path d="M58.4054 44.1307L58.0054 43.8307C58.2054 43.9307 58.3054 43.7307 58.7054 43.9307C58.7054 43.8307 58.5054 43.7307 58.4054 43.6307C58.6054 43.6307 58.8054 43.7307 58.5054 43.5307C58.1054 43.6307 58.0054 43.5307 57.8054 43.7307C57.7054 43.7307 57.7054 43.6307 57.8054 43.6307H57.5054C58.1054 43.9307 58.0054 44.1307 58.4054 44.1307Z" fill="#322015"/>
<path d="M58.0054 44.2307C58.0054 44.1307 57.7054 43.8307 57.4054 43.7307C57.5054 43.8307 57.5054 44.0307 57.6054 44.1307C57.6054 44.1307 57.6054 43.9307 58.0054 44.2307Z" fill="#322015"/>
<path d="M57.9054 44.4307C57.7054 44.3307 57.2054 44.2307 57.5054 44.5307C57.5054 44.3307 58.1054 44.6307 57.9054 44.4307Z" fill="#322015"/>
<path d="M57.0054 45.0307L57.4054 44.9307C57.9054 45.1307 57.5054 45.1307 57.7054 45.3307C57.9054 45.2307 57.7054 45.1307 57.5054 44.8307C57.6054 44.8307 57.3054 44.5307 57.2054 44.4307C57.5054 44.9307 56.2054 44.3307 57.0054 45.0307Z" fill="#322015"/>
<path d="M57.8054 44.8307L57.6054 44.7307L57.7054 44.9307L57.8054 44.8307Z" fill="#322015"/>
<path d="M56.2054 45.2307C55.5054 45.0307 56.4054 45.7307 56.1054 45.7307L56.0054 45.6307V45.8307L55.9054 45.7307C56.3054 45.9307 56.3054 46.1307 56.6054 46.4307C57.1054 46.5307 56.2054 46.1307 56.7054 46.2307C56.8054 46.3307 57.1054 46.5307 57.2054 46.6307C57.1054 46.4307 56.9054 46.3307 56.7054 46.1307C56.7054 46.0307 56.9054 46.1307 57.0054 46.2307C56.8054 46.0307 56.3054 45.6307 56.5054 45.6307C56.9054 45.7307 57.0054 46.0307 56.9054 45.7307C56.3054 45.4307 57.1054 45.6307 56.8054 45.3307C57.0054 45.2307 57.4054 45.4307 57.6054 45.5307C57.1054 45.2307 56.8054 44.9307 56.7054 44.8307L57.0054 45.2307L56.4054 45.0307C56.4054 45.1307 56.3054 45.2307 56.2054 45.2307Z" fill="#322015"/>
<path d="M57.6054 45.5307V45.6307H57.8054L57.6054 45.5307Z" fill="#322015"/>
<path d="M57.3054 46.8307C57.3054 46.8307 57.2054 46.7307 57.1054 46.7307L57.3054 46.8307Z" fill="#322015"/>
<path d="M56.8054 46.7307L56.5054 46.6307L56.7054 46.8307L56.8054 46.7307Z" fill="#322015"/>
<path d="M54.6054 49.2307C54.8054 49.3307 54.5054 49.0307 54.3054 48.8307C54.1054 48.8307 54.5054 49.0307 54.6054 49.2307Z" fill="#322015"/>
<path d="M53.5054 51.0307C53.8054 51.1307 53.6054 50.7307 53.7054 50.7307C53.4054 50.6307 53.4054 50.8307 53.5054 51.0307Z" fill="#322015"/>
<path d="M53.7054 52.7307C53.6054 52.6307 53.6054 52.5307 53.5054 52.5307L53.1054 51.8307C52.8054 51.8307 53.5054 52.5307 53.7054 52.7307Z" fill="#322015"/>
<path d="M52.9054 53.5307V53.2307H52.8054C52.7054 52.9307 52.6054 52.8307 52.5054 52.6307C52.5054 52.8307 52.5054 53.1307 52.9054 53.5307Z" fill="#322015"/>
<path d="M52.5054 52.4307C52.6054 52.5307 52.6054 52.6307 52.5054 52.4307V52.4307Z" fill="#322015"/>
<path d="M52.4054 52.5307C52.5054 52.5307 52.5054 52.5307 52.4054 52.5307C52.4054 52.3307 52.4054 52.4307 52.4054 52.5307Z" fill="#322015"/>
<path d="M52.5054 53.3307L52.3054 53.5307L52.5054 53.6307C52.3054 53.2307 52.8054 53.7307 52.5054 53.3307Z" fill="#322015"/>
<path d="M51.0054 53.8307L50.7054 53.4307C50.5054 53.4307 50.8054 54.4307 50.3054 53.8307C50.5054 54.0307 50.4054 54.3307 50.7054 54.3307C50.6054 53.9307 50.8054 53.8307 51.0054 53.8307Z" fill="#322015"/>
<path d="M50.0054 53.6307C50.0054 53.5307 49.9054 53.4307 49.8054 53.3307C49.7054 53.3307 49.8054 53.5307 49.9054 53.7307C49.7054 53.1307 50.2054 53.9307 50.0054 53.6307Z" fill="#322015"/>
<path d="M49.3054 54.0307C49.3054 54.0307 49.4054 53.9307 49.3054 53.8307C49.2054 53.9307 49.4054 54.3307 49.5054 54.6307C49.7054 54.8307 49.5054 54.1307 49.3054 54.0307Z" fill="#322015"/>
<path d="M46.9054 51.4307C47.0054 51.8307 47.1054 51.7307 47.1054 51.5307C47.1054 51.6307 47.0054 51.5307 46.9054 51.4307Z" fill="#322015"/>
<path d="M48.0054 54.4307H48.1054L48.0054 53.9307V54.4307Z" fill="#322015"/>
<path d="M47.2054 55.0307V55.4307L47.4054 55.3307L47.2054 55.0307Z" fill="#322015"/>
<path d="M47.0054 54.9307L46.8054 55.0307L46.9054 55.1307C47.1054 55.2307 47.0054 55.0307 47.0054 54.9307Z" fill="#322015"/>
</g>
</g>
<path d="M218.905 133.831C218.705 133.431 218.405 132.931 218.205 132.431C216.105 128.431 214.205 126.531 214.205 126.531C214.205 126.531 208.505 123.931 195.005 123.731" stroke="#1B1C1E" stroke-width="1.2604" stroke-miterlimit="10" stroke-linecap="round" stroke-linejoin="round"/>
</svg>
