<svg width="42" height="41" viewBox="0 0 42 41" fill="none" xmlns="http://www.w3.org/2000/svg">
  <path d="M1.90002 39.3L4.60002 29.5C2.90002 26.6 2.00002 23.3 2.00002 20C2.00002 9.5 10.5 1 21 1C26.1 1 30.8 3 34.4 6.6C38 10.2 40 14.9 40 20C40 30.5 31.5 39 21 39C17.8 39 14.7 38.2 11.9 36.7L1.90002 39.3Z" fill="white"/>
  <path d="M1.89994 39.8C1.79994 39.8 1.59994 39.7 1.49994 39.7C1.39994 39.6 1.29994 39.4 1.39994 39.2L3.99994 29.5C2.39994 26.6 1.49994 23.3 1.49994 19.9C1.49994 9.2 10.2999 0.5 20.9999 0.5C26.1999 0.5 31.0999 2.5 34.7999 6.2C38.4999 9.9 40.4999 14.8 40.4999 20C40.4999 30.7 31.7999 39.5 20.9999 39.5C17.7999 39.5 14.6999 38.7 11.8999 37.2L1.99994 39.8H1.89994Z" fill="white"/>
  <path d="M21 1C26.1 1 30.8001 3 34.4001 6.6C38 10.2 40 14.9 40 20C40 30.5 31.5 39 21 39C17.8 39 14.7 38.2 11.9 36.7L1.90005 39.3L4.60005 29.5C2.90005 26.6 2.00005 23.3 2.00005 20C2.00005 9.5 10.5 1 21 1ZM21 0C10 0 1.00005 9 1.00005 20C1.00005 23.4 1.80005 26.7 3.50005 29.6L0.900049 39C0.800049 39.3 0.900049 39.7 1.20005 40C1.40005 40.2 1.60005 40.3 1.90005 40.3C2.00005 40.3 2.10005 40.3 2.20005 40.3L11.9 37.8C14.7 39.3 17.9 40 21.1 40C32.1 40 41.1 31 41.1 20C41.1 14.7 39 9.6 35.3 5.9C31.4 2.1 26.4 0 21 0Z" fill="#CFD8DC"/>
  <path d="M32.2 8.80001C29.2 5.80001 25.3 4.20001 21 4.20001C12.3 4.20001 5.19995 11.3 5.19995 20C5.19995 23 5.99995 25.9 7.59995 28.4L7.99995 29L6.39995 34.8L12.4 33.2L13 33.5C15.4 34.9 18.2 35.7 21 35.7C29.7 35.7 36.7999 28.6 36.7999 19.9C36.7999 15.8 35.2 11.8 32.2 8.80001Z" fill="#40C351"/>
  <path fill-rule="evenodd" clip-rule="evenodd" d="M16.3 12C15.9 11.2 15.6 11.2 15.2 11.2C14.9 11.2 14.6 11.2 14.3 11.2C14 11.2 13.5 11.3 13 11.8C12.6 12.3 11.3 13.4 11.3 15.8C11.3 18.2 13 20.4 13.2 20.7C13.4 21 16.5 26 21.3 27.9C25.3 29.5 26.1 29.2 27 29.1C27.9 29 29.8001 28 30.2001 26.8C30.6 25.7 30.6 24.7 30.5 24.5C30.4 24.3 30.1 24.2 29.6 23.9C29.1 23.6 26.8 22.5 26.4 22.4C26 22.2 25.6 22.2 25.3 22.6C25 23.1 24.1 24.1 23.8 24.5C23.5 24.8 23.2 24.9 22.8 24.6C22.3 24.4 20.8 23.9 19 22.2C17.6 20.9 16.6 19.4 16.4 18.9C16.1 18.4 16.4 18.2 16.6 17.9C16.8 17.7 17.1 17.3 17.3 17.1C17.5 16.8 17.6 16.6 17.8 16.3C18 16 17.9 15.7 17.8 15.5C17.6 15.3 16.7 13 16.3 12Z" fill="white"/>
</svg>
